<svg width="294" height="123" viewBox="0 0 294 123" fill="none" xmlns="http://www.w3.org/2000/svg">
<g filter="url(#filter0_d_232_5180)">
<circle cx="61" cy="51.4766" r="41" fill="white"/>
<circle cx="61" cy="51.4766" r="40.7" stroke="#1C63A3" stroke-width="0.6"/>
</g>
<path d="M39.282 54.3172C37.9893 53.0245 37.9893 50.9287 39.282 49.636L59.1594 29.7586C60.4521 28.4659 62.5479 28.4659 63.8406 29.7586L83.7179 49.636C85.0106 50.9287 85.0106 53.0245 83.7179 54.3172L63.8406 74.1945C62.5479 75.4872 60.4521 75.4872 59.1594 74.1945L39.282 54.3172Z" fill="#EE513B"/>
<path d="M55.1212 33.8594L53.1084 35.8723L58.3072 41.0711C58.0969 41.5223 57.9794 42.0255 57.9794 42.5561C57.9794 44.0627 58.926 45.3481 60.2568 45.8501V58.5678C58.926 59.0698 57.9794 60.3552 57.9794 61.8617C57.9794 63.8055 59.5552 65.3813 61.499 65.3813C63.4427 65.3813 65.0185 63.8055 65.0185 61.8617C65.0185 60.496 64.2405 59.3118 63.1035 58.7284V45.8675L68.0731 50.8371C67.873 51.2791 67.7617 51.7699 67.7617 52.2866C67.7617 54.2304 69.3375 55.8061 71.2813 55.8061C73.225 55.8061 74.8008 54.2304 74.8008 52.2866C74.8008 50.3428 73.225 48.7671 71.2813 48.7671C70.9035 48.7671 70.5398 48.8265 70.1986 48.9367L64.8613 43.5994C64.9635 43.2698 65.0185 42.9194 65.0185 42.5561C65.0185 40.6123 63.4427 39.0366 61.499 39.0366C61.1357 39.0366 60.7854 39.0916 60.4557 39.1938L55.1212 33.8594Z" fill="white"/>
<g filter="url(#filter1_d_232_5180)">
<circle cx="147" cy="51.4766" r="41" fill="white"/>
<circle cx="147" cy="51.4766" r="40.7" stroke="#1C63A3" stroke-width="0.6"/>
</g>
<g clip-path="url(#clip0_232_5180)">
<path d="M146.495 22.4766C130.744 22.4766 118 35.2232 118 50.9766C117.998 54.7199 118.733 58.4271 120.164 61.886C121.596 65.3449 123.695 68.4877 126.342 71.1347C128.989 73.7816 132.132 75.8808 135.591 77.3122C139.049 78.7436 142.757 79.4791 146.5 79.4766C162.253 79.4766 175 66.7299 175 50.9766C174.998 35.2232 162.147 22.4766 146.495 22.4766ZM133.129 57.0922C134.06 58.3343 135.304 58.8544 137.064 58.8544C137.895 58.8544 138.724 58.7499 139.449 58.4388C140.175 58.1301 141.004 57.7121 142.037 57.0922L144.942 61.2366C142.56 63.2078 139.864 64.1388 136.755 64.1388C134.266 64.1388 132.195 63.6211 130.331 62.5856C128.521 61.5178 127.076 59.9285 126.184 58.0256C125.253 56.0543 124.733 53.7743 124.733 51.0787C124.733 48.4899 125.253 46.1054 126.182 44.1366C127.069 42.1751 128.512 40.5175 130.333 39.3699C132.093 38.2299 134.269 37.7122 136.653 37.7122C138.313 37.7122 139.867 37.9188 141.111 38.4366C142.507 38.977 143.803 39.7477 144.944 40.7166L142.042 44.6543C141.305 44.1103 140.505 43.6574 139.66 43.3053C138.936 42.9966 138.002 42.8921 137.171 42.8921C133.649 42.8921 131.887 45.5853 131.887 51.0763C131.785 53.8788 132.302 55.8453 133.131 57.0898L133.129 57.0922ZM161.629 63.5166C160.593 66.7299 159.038 69.1144 156.86 70.8743C154.684 72.6389 151.782 73.5699 148.155 73.8811L147.431 69.0123C149.813 68.6988 151.575 68.1811 152.715 67.3498C153.129 67.0411 153.96 66.1077 153.96 66.1077L145.358 38.5411H152.506L157.482 59.1632L162.769 38.5411H169.711L161.629 63.5166Z" fill="black"/>
</g>
<g filter="url(#filter2_d_232_5180)">
<circle cx="233" cy="51.4766" r="41" fill="white"/>
<circle cx="233" cy="51.4766" r="40.7" stroke="#1C63A3" stroke-width="0.6"/>
</g>
<path d="M253.946 51.5813C253.946 50.3069 253.44 49.0848 252.539 48.1837C251.638 47.2827 250.416 46.7764 249.141 46.7764C248.973 46.7763 248.804 46.7849 248.636 46.8023L255.237 27.3359H227.188L233.779 46.7857C233.683 46.7857 233.586 46.7764 233.488 46.7764C232.341 46.7751 231.231 47.1845 230.359 47.9304C229.487 48.6763 228.911 49.7096 228.735 50.8434C228.558 51.9772 228.794 53.1366 229.398 54.1119C230.002 55.0873 230.936 55.8142 232.03 56.1611C231.007 57.9209 229.735 59.5227 228.252 60.9162C226.321 62.7618 224.027 64.1852 221.516 65.0959C220.11 64.4292 219.009 63.252 218.439 61.8035C217.869 60.3549 217.872 58.7436 218.447 57.2969C218.589 56.965 218.732 56.6294 218.869 56.2939C219.94 56.0416 220.892 55.4293 221.567 54.5592C222.241 53.6892 222.596 52.6142 222.573 51.5138C222.549 50.4134 222.149 49.3544 221.439 48.5136C220.729 47.6727 219.751 47.1011 218.67 46.8942C217.589 46.6874 216.47 46.8577 215.5 47.3769C214.529 47.896 213.766 48.7325 213.338 49.7465C212.911 50.7606 212.844 51.8907 213.149 52.9482C213.454 54.0056 214.113 54.9263 215.015 55.5564C213.482 58.3373 212.311 61.3035 211.533 64.3824C210.88 68.3188 211.533 72.4949 214.934 74.8568C222.862 80.353 231.471 71.4495 240.546 69.213C243.835 68.4018 247.445 68.5327 250.342 66.8549C251.388 66.2589 252.291 65.4398 252.985 64.4558C253.679 63.4718 254.148 62.3471 254.359 61.1614C254.552 60.0315 254.516 58.8745 254.252 57.759C253.989 56.6435 253.504 55.5922 252.827 54.6677C253.55 53.8039 253.945 52.7131 253.944 51.5868L253.946 51.5813ZM238.295 51.6071V51.5905C238.296 50.7636 238.083 49.9505 237.678 49.23C237.272 48.5096 236.687 47.9063 235.979 47.4789L241.222 36.8571L246.477 47.5766C245.818 48.0147 245.277 48.6092 244.904 49.307C244.53 50.0048 244.335 50.7842 244.337 51.5757C244.337 51.6108 244.337 51.6458 244.337 51.6808L238.295 51.6071Z" fill="#C63D14"/>
<path d="M255.119 51.582C255.118 50.1888 254.63 48.8399 253.74 47.7677C252.851 46.6954 251.615 45.967 250.246 45.7078L256.873 26.1641H225.551L232.189 45.7465C231.03 46.0055 229.975 46.6039 229.157 47.4652C228.34 48.3266 227.798 49.4118 227.6 50.5826C227.402 51.7534 227.558 52.9565 228.047 54.0386C228.535 55.1206 229.336 56.0325 230.345 56.6578C229.511 57.8966 228.541 59.0382 227.454 60.0614C225.771 61.672 223.792 62.9428 221.628 63.8042C220.612 63.2145 219.842 62.2793 219.458 61.1692C219.074 60.059 219.102 58.8479 219.537 57.7567L219.611 57.5853L219.747 57.2626C220.976 56.8366 222.032 56.0217 222.757 54.9414C223.481 53.8612 223.833 52.5743 223.761 51.2757C223.688 49.9772 223.195 48.7376 222.354 47.7448C221.514 46.752 220.373 46.06 219.105 45.7736C217.836 45.4872 216.509 45.622 215.323 46.1576C214.138 46.6932 213.16 47.6004 212.536 48.7418C211.913 49.8833 211.678 51.1968 211.868 52.4834C212.058 53.7701 212.662 54.9598 213.589 55.8724C213.39 56.2983 213.18 56.7298 212.964 57.1741C211.769 59.3721 210.899 61.7322 210.383 64.1803C209.525 69.3428 210.908 73.4784 214.275 75.8107C216.082 77.1031 218.25 77.7952 220.472 77.7891C224.403 77.7891 228.38 75.8144 232.272 73.8822C234.991 72.4032 237.86 71.2178 240.83 70.3458C241.894 70.084 242.989 69.9255 244.149 69.7577C246.512 69.5689 248.816 68.9253 250.934 67.8623C252.129 67.1799 253.159 66.2432 253.951 65.1184C254.744 63.9937 255.279 62.7085 255.52 61.3539C255.911 59.0524 255.459 56.6869 254.245 54.6924C254.819 53.7559 255.123 52.6786 255.121 51.5802L255.119 51.582ZM252.772 51.582C252.772 52.3004 252.559 53.0026 252.16 53.5999C251.761 54.1972 251.194 54.6628 250.53 54.9377C249.866 55.2126 249.136 55.2845 248.432 55.1444C247.727 55.0042 247.08 54.6583 246.572 54.1503C246.064 53.6424 245.718 52.9952 245.578 52.2906C245.438 51.586 245.51 50.8557 245.784 50.192C246.059 49.5283 246.525 48.9611 247.122 48.5619C247.72 48.1628 248.422 47.9498 249.14 47.9498C250.103 47.9508 251.026 48.3338 251.707 49.0147C252.388 49.6957 252.771 50.619 252.772 51.582ZM253.596 28.5112L247.744 45.7687C247.494 45.8293 247.247 45.9063 247.007 45.9991L241.227 34.1991L235.428 45.9291C235.176 45.8416 234.918 45.7714 234.656 45.7189L228.824 28.5112H253.596ZM233.487 47.9498C234.205 47.9498 234.907 48.1628 235.505 48.5619C236.102 48.9611 236.568 49.5283 236.842 50.192C237.117 50.8557 237.189 51.586 237.049 52.2906C236.909 52.9952 236.563 53.6424 236.055 54.1503C235.547 54.6583 234.9 55.0042 234.195 55.1444C233.491 55.2845 232.76 55.2126 232.097 54.9377C231.433 54.6628 230.866 54.1972 230.467 53.5999C230.068 53.0026 229.855 52.3004 229.855 51.582C229.856 50.619 230.238 49.6957 230.919 49.0147C231.6 48.3338 232.524 47.9508 233.487 47.9498ZM217.774 47.9848C218.493 47.9852 219.195 48.1988 219.793 48.5985C220.39 48.9983 220.855 49.5662 221.13 50.2305C221.404 50.8947 221.475 51.6255 221.334 52.3302C221.193 53.0349 220.846 53.6819 220.337 54.1893C219.828 54.6967 219.18 55.0417 218.475 55.1807C217.77 55.3196 217.039 55.2463 216.376 54.9699C215.712 54.6935 215.146 54.2265 214.748 53.6281C214.35 53.0296 214.138 52.3265 214.14 51.6078C214.141 50.6448 214.524 49.7215 215.205 49.0405C215.886 48.3596 216.809 47.9766 217.772 47.9756L217.774 47.9848ZM253.206 60.9538C253.023 61.9701 252.62 62.9339 252.024 63.777C251.428 64.6201 250.653 65.3217 249.756 65.8323C247.894 66.7364 245.878 67.2801 243.814 67.4346C242.648 67.6023 241.444 67.7757 240.266 68.067C237.13 68.9752 234.101 70.2195 231.232 71.7784C225.398 74.675 220.354 77.1769 215.612 73.8858C212.132 71.4742 212.293 67.0123 212.698 64.5675C213.176 62.3427 213.972 60.1984 215.062 58.2011C215.232 57.8526 215.398 57.5097 215.56 57.1704C216.055 57.3684 216.575 57.4986 217.105 57.5576C216.636 59.2151 216.767 60.985 217.475 62.5553C218.184 64.1255 219.424 65.3951 220.977 66.1403L221.429 66.3726L221.906 66.2029C224.57 65.2415 227.003 63.7343 229.051 61.7779C230.403 60.5057 231.591 59.0694 232.587 57.5023C233.861 57.6961 235.164 57.4727 236.301 56.8654C237.438 56.2582 238.348 55.2996 238.895 54.1327C239.443 52.9659 239.598 51.6532 239.339 50.3908C239.079 49.1283 238.418 47.9836 237.454 47.1275L241.212 39.5294L245.008 47.2732C243.928 48.3141 243.279 49.7234 243.19 51.2208C243.102 52.7183 243.579 54.1944 244.529 55.3557C245.478 56.517 246.83 57.2786 248.315 57.4891C249.801 57.6997 251.311 57.3437 252.546 56.4919C253.23 57.8738 253.459 59.4372 253.2 60.9575L253.206 60.9538Z" fill="white"/>
<defs>
<filter id="filter0_d_232_5180" x="0" y="0.476562" width="122" height="122" filterUnits="userSpaceOnUse" color-interpolation-filters="sRGB">
<feFlood flood-opacity="0" result="BackgroundImageFix"/>
<feColorMatrix in="SourceAlpha" type="matrix" values="0 0 0 0 0 0 0 0 0 0 0 0 0 0 0 0 0 0 127 0" result="hardAlpha"/>
<feOffset dy="10"/>
<feGaussianBlur stdDeviation="10"/>
<feComposite in2="hardAlpha" operator="out"/>
<feColorMatrix type="matrix" values="0 0 0 0 0.163365 0 0 0 0 0.288133 0 0 0 0 0.4006 0 0 0 0.15 0"/>
<feBlend mode="normal" in2="BackgroundImageFix" result="effect1_dropShadow_232_5180"/>
<feBlend mode="normal" in="SourceGraphic" in2="effect1_dropShadow_232_5180" result="shape"/>
</filter>
<filter id="filter1_d_232_5180" x="86" y="0.476562" width="122" height="122" filterUnits="userSpaceOnUse" color-interpolation-filters="sRGB">
<feFlood flood-opacity="0" result="BackgroundImageFix"/>
<feColorMatrix in="SourceAlpha" type="matrix" values="0 0 0 0 0 0 0 0 0 0 0 0 0 0 0 0 0 0 127 0" result="hardAlpha"/>
<feOffset dy="10"/>
<feGaussianBlur stdDeviation="10"/>
<feComposite in2="hardAlpha" operator="out"/>
<feColorMatrix type="matrix" values="0 0 0 0 0.163365 0 0 0 0 0.288133 0 0 0 0 0.4006 0 0 0 0.15 0"/>
<feBlend mode="normal" in2="BackgroundImageFix" result="effect1_dropShadow_232_5180"/>
<feBlend mode="normal" in="SourceGraphic" in2="effect1_dropShadow_232_5180" result="shape"/>
</filter>
<filter id="filter2_d_232_5180" x="172" y="0.476562" width="122" height="122" filterUnits="userSpaceOnUse" color-interpolation-filters="sRGB">
<feFlood flood-opacity="0" result="BackgroundImageFix"/>
<feColorMatrix in="SourceAlpha" type="matrix" values="0 0 0 0 0 0 0 0 0 0 0 0 0 0 0 0 0 0 127 0" result="hardAlpha"/>
<feOffset dy="10"/>
<feGaussianBlur stdDeviation="10"/>
<feComposite in2="hardAlpha" operator="out"/>
<feColorMatrix type="matrix" values="0 0 0 0 0.163365 0 0 0 0 0.288133 0 0 0 0 0.4006 0 0 0 0.15 0"/>
<feBlend mode="normal" in2="BackgroundImageFix" result="effect1_dropShadow_232_5180"/>
<feBlend mode="normal" in="SourceGraphic" in2="effect1_dropShadow_232_5180" result="shape"/>
</filter>
<clipPath id="clip0_232_5180">
<rect width="57" height="57" fill="white" transform="translate(118 22.4766)"/>
</clipPath>
</defs>
</svg>
