<svg width="208" height="123" viewBox="0 0 208 123" fill="none" xmlns="http://www.w3.org/2000/svg">
<g filter="url(#filter0_d_257_5053)">
<circle cx="61" cy="51.4766" r="41" fill="white"/>
<circle cx="61" cy="51.4766" r="40.7" stroke="#1C63A3" stroke-width="0.6"/>
</g>
<path d="M61.167 69.9637C60.9673 69.9637 60.7808 69.9104 60.6076 69.8172L58.8364 68.7651C58.57 68.6186 58.7032 68.5653 58.7831 68.5387C59.1427 68.4189 59.2093 68.3921 59.5822 68.1792C59.6222 68.1524 59.6755 68.1658 59.7154 68.1924L61.0739 69.0048C61.1271 69.0314 61.1937 69.0314 61.2336 69.0048L66.5476 65.9283C66.6009 65.9017 66.6276 65.8483 66.6276 65.7818V59.6421C66.6276 59.5754 66.6009 59.5223 66.5476 59.4956L61.2336 56.4324C61.1804 56.4057 61.1138 56.4057 61.0739 56.4324L55.7598 59.4956C55.7066 59.5222 55.6799 59.5888 55.6799 59.642V65.7817C55.6799 65.8351 55.7066 65.9016 55.7598 65.9283L57.2116 66.7673C57.9974 67.1668 58.4901 66.7007 58.4901 66.2346V60.1748C58.4901 60.0949 58.5567 60.0149 58.6499 60.0149H59.3291C59.4091 60.0149 59.4889 60.0815 59.4889 60.1748V66.2346C59.4889 67.2867 58.9162 67.8994 57.9174 67.8994C57.6111 67.8994 57.3714 67.8994 56.6921 67.5663L55.2937 66.7673C54.9474 66.5676 54.7344 66.1946 54.7344 65.7951V59.6554C54.7344 59.2559 54.9474 58.8829 55.2937 58.6832L60.6076 55.6066C60.9407 55.4202 61.3935 55.4202 61.7265 55.6066L67.0404 58.6832C67.3866 58.8829 67.5998 59.2559 67.5998 59.6554V65.7951C67.5998 66.1946 67.3866 66.5676 67.0404 66.7673L61.7265 69.8438C61.5533 69.9238 61.3534 69.9637 61.167 69.9637ZM62.8052 65.7418C60.4745 65.7418 59.9951 64.6764 59.9951 63.7708C59.9951 63.6908 60.0617 63.6109 60.1549 63.6109H60.8474C60.9273 63.6109 60.9939 63.6642 60.9939 63.7441C61.1005 64.45 61.4068 64.7962 62.8185 64.7962C63.9372 64.7962 64.4168 64.5432 64.4168 63.9438C64.4168 63.5976 64.2835 63.3446 62.5389 63.1714C61.0871 63.0248 60.1815 62.7053 60.1815 61.5466C60.1815 60.4678 61.0872 59.8285 62.6055 59.8285C64.3101 59.8285 65.1493 60.4146 65.2558 61.693C65.2558 61.7331 65.2425 61.7729 65.2159 61.8129C65.1891 61.8395 65.1493 61.8662 65.1093 61.8662H64.4167C64.3501 61.8662 64.2835 61.8129 64.2703 61.7463C64.1104 61.0139 63.6975 60.7741 62.6055 60.7741C61.3802 60.7741 61.2336 61.2003 61.2336 61.5199C61.2336 61.9062 61.4068 62.026 63.0582 62.2391C64.6964 62.4522 65.4689 62.7585 65.4689 63.9039C65.4555 65.0759 64.4967 65.7418 62.8052 65.7418Z" fill="#539E43"/>
<path d="M44.6788 45.9512C44.6788 45.7115 44.5455 45.485 44.3325 45.3651L38.6855 42.1155C38.5922 42.0622 38.4857 42.0356 38.3792 42.0222H38.3259C38.2194 42.0222 38.1128 42.0622 38.0196 42.1155L32.3726 45.3651C32.1595 45.485 32.0264 45.7114 32.0264 45.9512L32.0397 54.6879C32.0397 54.8078 32.1063 54.9276 32.2128 54.981C32.3194 55.0476 32.4525 55.0476 32.5458 54.981L35.902 53.0631C36.1151 52.9433 36.2483 52.7169 36.2483 52.4772V48.3884C36.2483 48.1487 36.3814 47.9223 36.5946 47.8025L38.0196 46.9767C38.1262 46.9101 38.246 46.8833 38.3659 46.8833C38.4857 46.8833 38.6056 46.9101 38.6989 46.9767L40.1239 47.8025C40.3371 47.9223 40.4702 48.1486 40.4702 48.3884V52.4772C40.4702 52.7169 40.6034 52.9433 40.8164 53.0631L44.1726 54.981C44.2792 55.0476 44.4123 55.0476 44.5189 54.981C44.6255 54.9276 44.6921 54.8078 44.6921 54.6879L44.6788 45.9512ZM71.8214 33.9248C71.7149 33.8714 71.5817 33.8714 71.4884 33.9248C71.3819 33.9914 71.3153 34.0979 71.3153 34.2177V42.8747C71.3153 42.9545 71.2754 43.0344 71.1955 43.0878C71.1156 43.1276 71.0356 43.1276 70.9558 43.0878L69.544 42.2754C69.4405 42.2164 69.3235 42.1854 69.2044 42.1854C69.0853 42.1854 68.9682 42.2164 68.8647 42.2754L63.2178 45.5383C63.0047 45.6582 62.8715 45.8846 62.8715 46.1243V52.6369C62.8715 52.8766 63.0047 53.1031 63.2178 53.223L68.8647 56.4859C68.9682 56.5449 69.0853 56.5759 69.2044 56.5759C69.3235 56.5759 69.4405 56.5449 69.544 56.4859L75.191 53.223C75.404 53.1031 75.5373 52.8767 75.5373 52.6369V36.402C75.5373 36.1489 75.404 35.9226 75.191 35.8026L71.8214 33.9248ZM71.302 50.4927C71.302 50.5593 71.2754 50.6126 71.2221 50.6392L69.291 51.7579C69.264 51.771 69.2344 51.7779 69.2044 51.7779C69.1744 51.7779 69.1447 51.771 69.1178 51.7579L67.1867 50.6392C67.1333 50.6126 67.1067 50.546 67.1067 50.4927V48.2552C67.1067 48.1886 67.1333 48.1354 67.1867 48.1087L69.1178 46.9899C69.1447 46.9768 69.1744 46.9699 69.2044 46.9699C69.2344 46.9699 69.264 46.9768 69.291 46.9899L71.2221 48.1087C71.2754 48.1353 71.302 48.202 71.302 48.2552V50.4927ZM90.6135 48.202C90.8267 48.0821 90.9465 47.8557 90.9465 47.6159V46.0311C90.9465 45.7914 90.8133 45.565 90.6135 45.4451L85.0065 42.1955C84.903 42.1366 84.786 42.1056 84.6669 42.1056C84.5478 42.1056 84.4308 42.1366 84.3273 42.1955L78.6804 45.4584C78.4672 45.5782 78.3341 45.8046 78.3341 46.0444V52.557C78.3341 52.7967 78.4672 53.0231 78.6804 53.143L84.2873 56.3394C84.5005 56.4592 84.7535 56.4592 84.9533 56.3394L88.3494 54.4484C88.4559 54.395 88.5226 54.2752 88.5226 54.1553C88.5226 54.0355 88.4559 53.9156 88.3494 53.8623L82.6758 50.5993C82.5693 50.5328 82.5027 50.4262 82.5027 50.3064V48.2687C82.5027 48.1489 82.5693 48.029 82.6758 47.9757L84.4472 46.9634C84.499 46.9308 84.559 46.9135 84.6203 46.9135C84.6816 46.9135 84.7416 46.9308 84.7935 46.9634L86.5647 47.9757C86.6713 48.0423 86.7379 48.1487 86.7379 48.2687V49.8669C86.7379 49.9867 86.8045 50.1066 86.911 50.1598C87.0176 50.2264 87.1507 50.2264 87.2573 50.1598L90.6135 48.202Z" fill="#333333"/>
<path d="M84.58 47.8959C84.5998 47.8829 84.6229 47.876 84.6465 47.876C84.6702 47.876 84.6933 47.8829 84.7131 47.8959L85.7919 48.5219C85.8319 48.5484 85.8585 48.5884 85.8585 48.6417V49.8936C85.8585 49.9469 85.8319 49.9868 85.7919 50.0135L84.7131 50.6394C84.6933 50.6524 84.6702 50.6594 84.6465 50.6594C84.6229 50.6594 84.5998 50.6524 84.58 50.6394L83.5012 50.0135C83.4612 49.9868 83.4346 49.9469 83.4346 49.8936V48.6417C83.4346 48.5884 83.4612 48.5484 83.5012 48.5219L84.58 47.8959Z" fill="#539E43"/>
<path d="M54.1221 42.2217C54.0186 42.1628 53.9016 42.1318 53.7825 42.1318C53.6634 42.1318 53.5464 42.1628 53.4429 42.2217L47.836 45.4578C47.6228 45.5777 47.5029 45.8041 47.5029 46.0438V52.5299C47.5029 52.7696 47.6361 52.996 47.836 53.1159L53.4429 56.3522C53.5464 56.4111 53.6634 56.4421 53.7825 56.4421C53.9016 56.4421 54.0186 56.4111 54.1221 56.3522L59.7292 53.1159C59.9422 52.996 60.0622 52.7696 60.0622 52.5299V46.0439C60.0622 45.8042 59.9289 45.5778 59.7292 45.458L54.1221 42.2217Z" fill="url(#paint0_linear_257_5053)"/>
<mask id="mask0_257_5053" style="mask-type:luminance" maskUnits="userSpaceOnUse" x="47" y="42" width="14" height="15">
<path d="M54.1231 42.2217C54.0196 42.1628 53.9026 42.1318 53.7835 42.1318C53.6644 42.1318 53.5474 42.1628 53.4439 42.2217L47.8369 45.4578C47.6237 45.5777 47.5039 45.8041 47.5039 46.0438V52.5299C47.5039 52.7696 47.6371 52.996 47.8369 53.1159L53.4439 56.3522C53.5474 56.4111 53.6644 56.4421 53.7835 56.4421C53.9026 56.4421 54.0196 56.4111 54.1231 56.3522L59.7302 53.1159C59.9432 52.996 60.0632 52.7696 60.0632 52.5299V46.0439C60.0632 45.8042 59.9299 45.5778 59.7302 45.458L54.1231 42.2217Z" fill="white"/>
</mask>
<g mask="url(#mask0_257_5053)">
<path d="M59.7427 45.4581L54.1091 42.2219C54.0538 42.1939 53.9958 42.1716 53.9359 42.1553L47.623 52.9698C47.6753 53.0336 47.7385 53.0877 47.8096 53.1296L53.4432 56.366C53.603 56.4592 53.7895 56.4858 53.9626 56.4325L59.8893 45.5914C59.8493 45.5382 59.7959 45.498 59.7427 45.4581Z" fill="url(#paint1_linear_257_5053)"/>
</g>
<mask id="mask1_257_5053" style="mask-type:luminance" maskUnits="userSpaceOnUse" x="47" y="42" width="14" height="15">
<path d="M54.1231 42.2217C54.0196 42.1628 53.9026 42.1318 53.7835 42.1318C53.6644 42.1318 53.5474 42.1628 53.4439 42.2217L47.8369 45.4578C47.6237 45.5777 47.5039 45.8041 47.5039 46.0438V52.5299C47.5039 52.7696 47.6371 52.996 47.8369 53.1159L53.4439 56.3522C53.5474 56.4111 53.6644 56.4421 53.7835 56.4421C53.9026 56.4421 54.0196 56.4111 54.1231 56.3522L59.7302 53.1159C59.9432 52.996 60.0632 52.7696 60.0632 52.5299V46.0439C60.0632 45.8042 59.9299 45.5778 59.7302 45.458L54.1231 42.2217Z" fill="white"/>
</mask>
<g mask="url(#mask1_257_5053)">
<path fill-rule="evenodd" clip-rule="evenodd" d="M59.7559 53.1153C59.9157 53.022 60.0356 52.8622 60.0889 52.6891L53.909 42.141C53.7492 42.1144 53.576 42.1277 53.4296 42.2209L47.8359 45.444L53.869 56.4448C53.9568 56.4305 54.042 56.4036 54.1221 56.365L59.7558 53.1154L59.7559 53.1153Z" fill="url(#paint2_linear_257_5053)"/>
<path fill-rule="evenodd" clip-rule="evenodd" d="M59.7562 53.1163L54.1359 56.3526C54.0565 56.3931 53.971 56.4201 53.8828 56.4325L53.9894 56.6323L60.2223 53.0232V52.9432L60.0625 52.6768C60.0359 52.8632 59.916 53.023 59.7562 53.1163Z" fill="url(#paint3_linear_257_5053)"/>
<path fill-rule="evenodd" clip-rule="evenodd" d="M59.7562 53.1163L54.1359 56.3526C54.0565 56.3931 53.971 56.4201 53.8828 56.4325L53.9894 56.6323L60.2223 53.0232V52.9432L60.0625 52.6768C60.0359 52.8632 59.916 53.023 59.7562 53.1163Z" fill="url(#paint4_linear_257_5053)"/>
</g>
<g filter="url(#filter1_d_257_5053)">
<circle cx="147" cy="51.4766" r="41" fill="white"/>
<circle cx="147" cy="51.4766" r="40.7" stroke="#1C63A3" stroke-width="0.6"/>
</g>
<path d="M146.853 30.9766C136.444 30.9766 137.093 35.4904 137.093 35.4904L137.106 40.167H147.038V41.5699H133.159C133.159 41.5699 126.5 40.814 126.5 51.3177C126.5 61.8188 132.313 61.4473 132.313 61.4473H135.783V56.5734C135.783 56.5734 135.596 50.7603 141.503 50.7603H151.354C151.354 50.7603 156.889 50.85 156.889 45.4111V36.418C156.889 36.418 157.729 30.9766 146.853 30.9766ZM141.375 34.1208C142.363 34.1208 143.163 34.9203 143.163 35.9081C143.163 36.8959 142.363 37.6954 141.375 37.6954C141.141 37.6958 140.908 37.6498 140.691 37.5601C140.474 37.4704 140.277 37.3387 140.111 37.1727C139.945 37.0067 139.813 36.8095 139.723 36.5925C139.634 36.3755 139.588 36.1429 139.588 35.9081C139.588 34.9203 140.387 34.1208 141.375 34.1208Z" fill="url(#paint5_linear_257_5053)"/>
<path d="M147.148 71.763C157.557 71.763 156.907 67.2492 156.907 67.2492L156.894 62.5726H146.962V61.1697H160.84C160.84 61.1697 167.5 61.9256 167.5 51.4232C167.5 40.9208 161.687 41.2936 161.687 41.2936H158.218V46.1662C158.218 46.1662 158.405 51.9793 152.497 51.9793H142.647C142.647 51.9793 137.112 51.8896 137.112 57.3285V66.3216C137.112 66.3216 136.271 71.763 147.148 71.763ZM152.625 68.6189C152.39 68.6192 152.158 68.5732 151.941 68.4835C151.724 68.3938 151.527 68.2621 151.361 68.0961C151.194 67.9301 151.063 67.7329 150.973 67.5159C150.883 67.2989 150.837 67.0663 150.838 66.8315C150.838 65.8449 151.637 65.0454 152.625 65.0454C153.613 65.0454 154.412 65.8437 154.412 66.8315C154.412 67.8206 153.613 68.6189 152.625 68.6189Z" fill="url(#paint6_linear_257_5053)"/>
<defs>
<filter id="filter0_d_257_5053" x="0" y="0.476562" width="122" height="122" filterUnits="userSpaceOnUse" color-interpolation-filters="sRGB">
<feFlood flood-opacity="0" result="BackgroundImageFix"/>
<feColorMatrix in="SourceAlpha" type="matrix" values="0 0 0 0 0 0 0 0 0 0 0 0 0 0 0 0 0 0 127 0" result="hardAlpha"/>
<feOffset dy="10"/>
<feGaussianBlur stdDeviation="10"/>
<feComposite in2="hardAlpha" operator="out"/>
<feColorMatrix type="matrix" values="0 0 0 0 0.163365 0 0 0 0 0.288133 0 0 0 0 0.4006 0 0 0 0.15 0"/>
<feBlend mode="normal" in2="BackgroundImageFix" result="effect1_dropShadow_257_5053"/>
<feBlend mode="normal" in="SourceGraphic" in2="effect1_dropShadow_257_5053" result="shape"/>
</filter>
<filter id="filter1_d_257_5053" x="86" y="0.476562" width="122" height="122" filterUnits="userSpaceOnUse" color-interpolation-filters="sRGB">
<feFlood flood-opacity="0" result="BackgroundImageFix"/>
<feColorMatrix in="SourceAlpha" type="matrix" values="0 0 0 0 0 0 0 0 0 0 0 0 0 0 0 0 0 0 127 0" result="hardAlpha"/>
<feOffset dy="10"/>
<feGaussianBlur stdDeviation="10"/>
<feComposite in2="hardAlpha" operator="out"/>
<feColorMatrix type="matrix" values="0 0 0 0 0.163365 0 0 0 0 0.288133 0 0 0 0 0.4006 0 0 0 0.15 0"/>
<feBlend mode="normal" in2="BackgroundImageFix" result="effect1_dropShadow_257_5053"/>
<feBlend mode="normal" in="SourceGraphic" in2="effect1_dropShadow_257_5053" result="shape"/>
</filter>
<linearGradient id="paint0_linear_257_5053" x1="903.895" y1="292.376" x2="289.318" y2="1258.06" gradientUnits="userSpaceOnUse">
<stop stop-color="#41873F"/>
<stop offset="0.3288" stop-color="#418B3D"/>
<stop offset="0.6352" stop-color="#419637"/>
<stop offset="0.9319" stop-color="#3FA92D"/>
<stop offset="1" stop-color="#3FAE2A"/>
</linearGradient>
<linearGradient id="paint1_linear_257_5053" x1="578.469" y1="831.315" x2="2117.65" y2="-4.92697" gradientUnits="userSpaceOnUse">
<stop offset="0.1376" stop-color="#41873F"/>
<stop offset="0.4032" stop-color="#54A044"/>
<stop offset="0.7136" stop-color="#66B848"/>
<stop offset="0.9081" stop-color="#6CC04A"/>
</linearGradient>
<linearGradient id="paint2_linear_257_5053" x1="-5.94243" y1="757.883" x2="1291.5" y2="757.883" gradientUnits="userSpaceOnUse">
<stop offset="0.09192" stop-color="#6CC04A"/>
<stop offset="0.2864" stop-color="#66B848"/>
<stop offset="0.5968" stop-color="#54A044"/>
<stop offset="0.8624" stop-color="#41873F"/>
</linearGradient>
<linearGradient id="paint3_linear_257_5053" x1="-604.544" y1="251.541" x2="692.886" y2="251.541" gradientUnits="userSpaceOnUse">
<stop offset="0.09192" stop-color="#6CC04A"/>
<stop offset="0.2864" stop-color="#66B848"/>
<stop offset="0.5968" stop-color="#54A044"/>
<stop offset="0.8624" stop-color="#41873F"/>
</linearGradient>
<linearGradient id="paint4_linear_257_5053" x1="881.904" y1="-782.214" x2="553.215" y2="940.11" gradientUnits="userSpaceOnUse">
<stop stop-color="#41873F"/>
<stop offset="0.3288" stop-color="#418B3D"/>
<stop offset="0.6352" stop-color="#419637"/>
<stop offset="0.9319" stop-color="#3FA92D"/>
<stop offset="1" stop-color="#3FAE2A"/>
</linearGradient>
<linearGradient id="paint5_linear_257_5053" x1="130.44" y1="34.541" x2="150.713" y2="54.8821" gradientUnits="userSpaceOnUse">
<stop stop-color="#387EB8"/>
<stop offset="1" stop-color="#366994"/>
</linearGradient>
<linearGradient id="paint6_linear_257_5053" x1="142.912" y1="47.4821" x2="164.686" y2="68.3421" gradientUnits="userSpaceOnUse">
<stop stop-color="#FFE052"/>
<stop offset="1" stop-color="#FFC331"/>
</linearGradient>
</defs>
</svg>
