<svg width="339" height="110" viewBox="0 0 339 110" fill="none" xmlns="http://www.w3.org/2000/svg">
<g filter="url(#filter0_d_231_5037)">
<circle cx="54.5382" cy="45.9386" r="36.5382" fill="white"/>
<circle cx="54.5382" cy="45.9386" r="36.2709" stroke="#1C63A3" stroke-width="0.534706"/>
</g>
<g clip-path="url(#clip0_231_5037)">
<path d="M68.5 26.7559H77.5603L54.9095 65.8284L32.2588 26.7559H49.5866L54.9095 35.8162L60.1192 26.7559H68.5Z" fill="#41B883"/>
<path d="M32.2588 26.7559L54.9095 65.8284L77.5603 26.7559H68.5L54.9095 50.1994L41.2058 26.7559H32.2588Z" fill="#41B883"/>
<path d="M41.2061 26.7559L54.9097 50.3126L68.5002 26.7559H60.1194L54.9097 35.8162L49.5868 26.7559H41.2061Z" fill="#35495E"/>
</g>
<g filter="url(#filter1_d_231_5037)">
<circle cx="131.18" cy="45.9386" r="36.5382" fill="white"/>
<circle cx="131.18" cy="45.9386" r="36.2709" stroke="#1C63A3" stroke-width="0.534706"/>
</g>
<path d="M144.921 33.2048C146.367 33.5412 147.681 34.2985 148.697 35.381C149.257 35.9668 149.743 36.6189 150.145 37.3227C150.163 37.3992 147.539 39.1625 145.947 40.1461C145.889 40.1852 145.66 39.9355 145.4 39.5515C145.109 39.0517 144.696 38.6337 144.2 38.3366C143.704 38.0396 143.141 37.8731 142.563 37.8527C140.733 37.727 139.554 38.6851 139.563 40.2871C139.547 40.6807 139.637 41.0713 139.823 41.4185C140.225 42.2509 140.973 42.7504 143.321 43.768C147.642 45.6282 149.498 46.8547 150.643 48.5977C151.29 49.6989 151.688 50.9284 151.81 52.1999C151.932 53.4715 151.775 54.7543 151.349 55.9586C150.764 57.2793 149.836 58.4193 148.661 59.2602C147.487 60.1011 146.108 60.6123 144.67 60.7407C143.14 60.9162 141.595 60.9002 140.069 60.6932C137.732 60.3092 135.58 59.1877 133.926 57.4926C133.301 56.7891 132.773 56.0059 132.353 55.1636C132.53 55.0324 132.715 54.9143 132.909 54.8102C133.177 54.6573 134.193 54.0729 135.151 53.5174L136.891 52.4981L137.254 53.0282C137.867 53.9038 138.646 54.6497 139.548 55.223C140.458 55.7225 141.49 55.9592 142.527 55.9067C143.564 55.8542 144.567 55.5146 145.422 54.9257C145.863 54.4956 146.139 53.9239 146.201 53.3107C146.264 52.6976 146.108 52.0822 145.762 51.5723C145.293 50.9013 144.335 50.3372 141.612 49.1566C139.476 48.4366 137.531 47.2431 135.922 45.6655C135.156 44.7923 134.59 43.7619 134.264 42.6468C134.023 41.3764 133.988 40.0755 134.159 38.7939C134.479 37.319 135.244 35.9781 136.351 34.9529C137.459 33.9276 138.854 33.2675 140.349 33.0621C141.872 32.8802 143.413 32.9283 144.921 33.2048ZM130.748 35.7241L130.767 38.1942H122.901V60.5301H117.354V38.1993H109.489V35.7734C109.468 34.9426 109.491 34.1113 109.557 33.2829C109.586 33.2439 114.368 33.2252 120.166 33.2354L130.717 33.2643L130.748 35.7241Z" fill="#007ACC"/>
<g filter="url(#filter2_d_231_5037)">
<circle cx="207.82" cy="45.9386" r="36.5382" fill="white"/>
<circle cx="207.82" cy="45.9386" r="36.2709" stroke="#1C63A3" stroke-width="0.534706"/>
</g>
<path d="M207.821 50.2104C210.205 50.2104 212.137 48.2778 212.137 45.8938C212.137 43.5098 210.205 41.5771 207.821 41.5771C205.437 41.5771 203.504 43.5098 203.504 45.8938C203.504 48.2778 205.437 50.2104 207.821 50.2104Z" fill="#00D8FF"/>
<path d="M207.821 55.792C202.632 55.9175 197.457 55.2181 192.488 53.72C190.193 52.9923 188.052 51.8461 186.174 50.3392C185.457 49.8244 184.86 49.1606 184.424 48.3935C183.988 47.6263 183.723 46.7739 183.647 45.8948C183.647 43.0406 186.783 40.2434 192.036 38.4132C197.137 36.7914 202.468 36.0054 207.821 36.0857C213.102 36.0119 218.361 36.7837 223.398 38.3717C225.609 39.0765 227.677 40.1673 229.507 41.5937C230.212 42.0845 230.8 42.7242 231.229 43.4674C231.659 44.2107 231.92 45.0394 231.994 45.8948C231.994 48.8612 228.489 51.8673 222.843 53.7355C217.97 55.1848 212.904 55.8784 207.821 55.792ZM207.821 38.1507C202.7 38.0823 197.6 38.8295 192.714 40.3643C187.879 42.0512 185.713 44.3581 185.713 45.8896C185.713 47.4919 188.042 50.0111 193.156 51.7602C197.91 53.1862 202.859 53.85 207.821 53.7269C212.684 53.8138 217.531 53.1558 222.195 51.7758C227.504 50.0163 229.922 47.4937 229.922 45.8948C229.835 45.3461 229.635 44.8214 229.335 44.3539C229.034 43.8865 228.641 43.4863 228.178 43.1787C226.541 41.9134 224.693 40.9466 222.72 40.3229C217.901 38.8099 212.871 38.0766 207.821 38.1507Z" fill="#00D8FF"/>
<path d="M198.014 67.424C197.208 67.4424 196.412 67.247 195.707 66.8576C193.234 65.4314 192.378 61.3185 193.416 55.8537C194.56 50.6238 196.542 45.6134 199.286 41.0165C201.86 36.4048 205.156 32.2346 209.047 28.664C210.762 27.1009 212.74 25.854 214.89 24.9811C215.668 24.6166 216.516 24.4277 217.375 24.4277C218.234 24.4277 219.082 24.6166 219.859 24.9811C222.43 26.4625 223.282 31.0002 222.082 36.8242C220.902 41.7703 218.971 46.5063 216.356 50.8671C213.873 55.4243 210.681 59.5582 206.901 63.1142C205.124 64.7386 203.061 66.0201 200.818 66.8939C199.92 67.2272 198.972 67.4065 198.014 67.424ZM201.075 42.0421C198.458 46.444 196.558 51.2343 195.446 56.2335C194.491 61.2667 195.408 64.2935 196.741 65.0636C198.123 65.8631 201.476 65.1051 205.547 61.5482C209.156 58.1414 212.202 54.1843 214.572 49.8242C217.078 45.6552 218.93 41.1273 220.065 36.3977C221.194 30.9156 220.219 27.559 218.834 26.7613C218.315 26.5624 217.76 26.4734 217.205 26.4998C216.65 26.5263 216.106 26.6676 215.608 26.9149C213.695 27.7046 211.935 28.8257 210.411 30.2267C206.693 33.6468 203.545 37.6391 201.087 42.0525L201.075 42.0421Z" fill="#00D8FF"/>
<path d="M217.623 67.4461C215.283 67.4461 212.312 66.0303 209.217 63.3695C205.258 59.7664 201.907 55.5467 199.294 50.8737C196.585 46.3401 194.618 41.4022 193.469 36.2472C192.97 33.9792 192.878 31.6408 193.196 29.3406C193.269 28.4873 193.529 27.6605 193.957 26.9186C194.385 26.1766 194.97 25.5375 195.672 25.0464C198.239 23.5598 202.596 25.0878 207.042 29.035C210.738 32.5266 213.877 36.5644 216.349 41.0076C219.056 45.4353 221.044 50.2651 222.236 55.3164C222.756 57.6676 222.837 60.0947 222.473 62.4751C222.386 63.3529 222.111 64.2017 221.666 64.9632C221.221 65.7246 220.616 66.3808 219.893 66.8867C219.2 67.2713 218.416 67.4643 217.623 67.4461ZM201.081 49.8343C203.588 54.3001 206.789 58.3386 210.564 61.7982C214.447 65.1393 217.528 65.8576 218.852 65.0789C220.234 64.276 221.252 60.9988 220.202 55.6962C219.052 50.8736 217.146 46.2634 214.555 42.0367C212.196 37.7841 209.2 33.9177 205.671 30.5717C201.485 26.8559 198.091 26.0254 196.708 26.8266C196.277 27.1769 195.923 27.6128 195.669 28.1067C195.415 28.6006 195.266 29.1419 195.232 29.6963C194.957 31.7477 195.046 33.8315 195.496 35.8518C196.601 40.7817 198.488 45.5031 201.083 49.8377L201.081 49.8343Z" fill="#00D8FF"/>
<g filter="url(#filter3_d_231_5037)">
<circle cx="284.462" cy="45.9386" r="36.5382" fill="white"/>
<circle cx="284.462" cy="45.9386" r="36.2709" stroke="#1C63A3" stroke-width="0.534706"/>
</g>
<g clip-path="url(#clip1_231_5037)">
<path d="M266.641 66.1261L265.154 26.4882C265.104 25.1791 266.108 24.0697 267.416 23.9879L301.131 21.8808C302.461 21.7976 303.608 22.809 303.691 24.1398C303.694 24.19 303.696 24.2402 303.696 24.2904V67.483C303.696 68.8164 302.615 69.8974 301.281 69.8974C301.245 69.8974 301.209 69.8966 301.173 69.895L268.946 68.4475C267.69 68.3912 266.688 67.3816 266.641 66.1261Z" fill="#FF4785"/>
<mask id="mask0_231_5037" style="mask-type:luminance" maskUnits="userSpaceOnUse" x="265" y="21" width="39" height="49">
<path d="M266.642 66.1251L265.155 26.4872C265.105 25.1781 266.109 24.0687 267.417 23.987L301.131 21.8798C302.462 21.7966 303.609 22.808 303.692 24.1389C303.695 24.189 303.696 24.2392 303.696 24.2895V67.482C303.696 68.8155 302.616 69.8964 301.282 69.8964C301.246 69.8964 301.21 69.8956 301.174 69.894L268.947 68.4466C267.691 68.3902 266.689 67.3806 266.642 66.1251Z" fill="white"/>
</mask>
<g mask="url(#mask0_231_5037)">
<path d="M293.614 27.7776L293.844 22.2388L298.474 21.875L298.673 27.587C298.68 27.7858 298.525 27.9525 298.326 27.9595C298.241 27.9625 298.158 27.9352 298.091 27.8825L296.305 26.4759L294.191 28.0795C294.033 28.1997 293.807 28.1687 293.687 28.0102C293.636 27.9435 293.61 27.8613 293.614 27.7776ZM287.692 39.9749C287.692 40.9143 294.02 40.4641 294.869 39.8042C294.869 33.4076 291.437 30.0462 285.151 30.0462C278.866 30.0462 275.345 33.4599 275.345 38.5803C275.345 47.4985 287.38 47.6692 287.38 52.5336C287.38 53.8991 286.712 54.7098 285.241 54.7098C283.324 54.7098 282.566 53.731 282.655 50.4026C282.655 49.6806 275.345 49.4555 275.122 50.4026C274.554 58.4683 279.58 60.7948 285.33 60.7948C290.902 60.7948 295.27 57.8248 295.27 52.4483C295.27 42.8901 283.056 43.1461 283.056 38.4097C283.056 36.4895 284.483 36.2335 285.33 36.2335C286.221 36.2335 287.826 36.3906 287.692 39.9749Z" fill="white"/>
</g>
</g>
<defs>
<filter id="filter0_d_231_5037" x="0.176472" y="0.488626" width="108.723" height="108.723" filterUnits="userSpaceOnUse" color-interpolation-filters="sRGB">
<feFlood flood-opacity="0" result="BackgroundImageFix"/>
<feColorMatrix in="SourceAlpha" type="matrix" values="0 0 0 0 0 0 0 0 0 0 0 0 0 0 0 0 0 0 127 0" result="hardAlpha"/>
<feOffset dy="8.91176"/>
<feGaussianBlur stdDeviation="8.91176"/>
<feComposite in2="hardAlpha" operator="out"/>
<feColorMatrix type="matrix" values="0 0 0 0 0.163365 0 0 0 0 0.288133 0 0 0 0 0.4006 0 0 0 0.15 0"/>
<feBlend mode="normal" in2="BackgroundImageFix" result="effect1_dropShadow_231_5037"/>
<feBlend mode="normal" in="SourceGraphic" in2="effect1_dropShadow_231_5037" result="shape"/>
</filter>
<filter id="filter1_d_231_5037" x="76.8181" y="0.488626" width="108.723" height="108.723" filterUnits="userSpaceOnUse" color-interpolation-filters="sRGB">
<feFlood flood-opacity="0" result="BackgroundImageFix"/>
<feColorMatrix in="SourceAlpha" type="matrix" values="0 0 0 0 0 0 0 0 0 0 0 0 0 0 0 0 0 0 127 0" result="hardAlpha"/>
<feOffset dy="8.91176"/>
<feGaussianBlur stdDeviation="8.91176"/>
<feComposite in2="hardAlpha" operator="out"/>
<feColorMatrix type="matrix" values="0 0 0 0 0.163365 0 0 0 0 0.288133 0 0 0 0 0.4006 0 0 0 0.15 0"/>
<feBlend mode="normal" in2="BackgroundImageFix" result="effect1_dropShadow_231_5037"/>
<feBlend mode="normal" in="SourceGraphic" in2="effect1_dropShadow_231_5037" result="shape"/>
</filter>
<filter id="filter2_d_231_5037" x="153.459" y="0.488626" width="108.724" height="108.723" filterUnits="userSpaceOnUse" color-interpolation-filters="sRGB">
<feFlood flood-opacity="0" result="BackgroundImageFix"/>
<feColorMatrix in="SourceAlpha" type="matrix" values="0 0 0 0 0 0 0 0 0 0 0 0 0 0 0 0 0 0 127 0" result="hardAlpha"/>
<feOffset dy="8.91176"/>
<feGaussianBlur stdDeviation="8.91176"/>
<feComposite in2="hardAlpha" operator="out"/>
<feColorMatrix type="matrix" values="0 0 0 0 0.163365 0 0 0 0 0.288133 0 0 0 0 0.4006 0 0 0 0.15 0"/>
<feBlend mode="normal" in2="BackgroundImageFix" result="effect1_dropShadow_231_5037"/>
<feBlend mode="normal" in="SourceGraphic" in2="effect1_dropShadow_231_5037" result="shape"/>
</filter>
<filter id="filter3_d_231_5037" x="230.1" y="0.488626" width="108.724" height="108.723" filterUnits="userSpaceOnUse" color-interpolation-filters="sRGB">
<feFlood flood-opacity="0" result="BackgroundImageFix"/>
<feColorMatrix in="SourceAlpha" type="matrix" values="0 0 0 0 0 0 0 0 0 0 0 0 0 0 0 0 0 0 127 0" result="hardAlpha"/>
<feOffset dy="8.91176"/>
<feGaussianBlur stdDeviation="8.91176"/>
<feComposite in2="hardAlpha" operator="out"/>
<feColorMatrix type="matrix" values="0 0 0 0 0.163365 0 0 0 0 0.288133 0 0 0 0 0.4006 0 0 0 0.15 0"/>
<feBlend mode="normal" in2="BackgroundImageFix" result="effect1_dropShadow_231_5037"/>
<feBlend mode="normal" in="SourceGraphic" in2="effect1_dropShadow_231_5037" result="shape"/>
</filter>
<clipPath id="clip0_231_5037">
<rect width="45.3015" height="45.3015" fill="white" transform="translate(32.2588 23.6592)"/>
</clipPath>
<clipPath id="clip1_231_5037">
<rect width="48.1235" height="48.1235" fill="white" transform="translate(260.4 21.877)"/>
</clipPath>
</defs>
</svg>
